# xmcd CD database file
#
# Track frame offsets:
#	150
#	15692
#	26363
#	40365
#	62061
#	75844
#	91328
#	104159
#	117807
#	129405
#	140671
#	157461
#	169195
#	180500
#	190819
#	205665
#	222780
#
# Disc length: 3058 seconds
#
# Revision: 1
# Processed by: cddbd v1.5.2PL0 Copyright (c) Steve Scherf et al.
# Submitted via: CDex 1.70beta2
#
DISCID=e80bf011
DTITLE=Boris Vian - L'ingénieux romanesque [CD3)
DYEAR=2009
DGENRE=Jazz
TTITLE0=Faut rigoler (Henri Salvador)
TTITLE1=Fais-moi mal Johnny (Magali Noël)
TTITLE2=Le déserteur (Mouloudji)
TTITLE3=Le tango interminable des perceurs de coffre-forts (les frères Jacques)
TTITLE4=Musique mécanique (Juliette Gréco)
TTITLE5=Le blouse du dentiste (Henri Salvador)
TTITLE6=Je n'peux pas m'empêcher (Philippe Clay)
TTITLE7=Pan pan poireaux pommes de terre (Maurice Chevalier)
TTITLE8=Rock des petits cailloux (Magali Noël)
TTITLE9=Moi j'préfère la marche à pied (Henri Salvador)
TTITLE10=Valse jaune (Mouloudji)
TTITLE11=Alhambra rock (Magali Noël)
TTITLE12=La java martienne (Les trois Horaces)
TTITLE13=Strip rock (Magali Noël)
TTITLE14=Sans blague (Renée Lebas)
TTITLE15=On n'est pas là pour se faire engueuler (Patachou)
TTITLE16=Juste le temps de vivre (Philippe Clay)
EXTD=YEAR: 2009
EXTT0=
EXTT1=
EXTT2=
EXTT3=
EXTT4=
EXTT5=
EXTT6=
EXTT7=
EXTT8=
EXTT9=
EXTT10=
EXTT11=
EXTT12=
EXTT13=
EXTT14=
EXTT15=
EXTT16=
PLAYORDER=
